<svg xmlns="http://www.w3.org/2000/svg" xmlns:xlink="http://www.w3.org/1999/xlink" width="500" zoomAndPan="magnify" viewBox="0 0 375 374.999991" height="500" preserveAspectRatio="xMidYMid meet" version="1.0"><defs><g/></defs><g fill="#915eff" fill-opacity="1"><g transform="translate(11.345151, 264.493854)"><g><path d="M 51.648438 -173.453125 L 51.648438 -171.910156 L 62.699219 -140.816406 L 1.796875 -1.542969 L 1.796875 0 L 67.582031 0 L 67.582031 -1.542969 C 56.019531 -14.648438 49.59375 -35.71875 49.082031 -60.128906 L 91.222656 -60.128906 L 106.640625 -14.902344 L 93.535156 -1.542969 L 93.535156 0 L 163.171875 0 L 163.171875 -1.542969 L 104.585938 -173.453125 Z M 49.082031 -64.753906 C 49.59375 -81.199219 52.679688 -99.1875 58.84375 -116.917969 L 64.753906 -133.621094 L 66.296875 -133.621094 L 89.679688 -64.753906 Z M 49.082031 -64.753906 "/></g></g></g><g fill="#915eff" fill-opacity="1"><g transform="translate(169.119925, 264.493854)"><g><path d="M 185.273438 -173.453125 L 131.566406 -173.453125 L 100.214844 -95.335938 L 98.929688 -95.335938 L 61.671875 -173.964844 L 6.167969 -173.453125 L 6.167969 -171.910156 L 20.558594 -146.214844 L 20.558594 0 L 74.777344 0 L 74.777344 -1.285156 C 42.914062 -27.238281 26.210938 -61.414062 26.210938 -116.664062 L 26.210938 -133.878906 L 27.496094 -133.878906 L 78.117188 -30.578125 L 80.945312 -30.578125 L 123.855469 -136.191406 L 125.398438 -136.191406 L 125.65625 -14.902344 L 111.78125 -1.542969 L 111.78125 0 L 175.765625 0 L 175.507812 -158.546875 L 185.273438 -171.910156 Z M 185.273438 -173.453125 "/></g></g></g><g fill="#915eff" fill-opacity="1"><g transform="translate(11.393779, 287.558624)"><g><path d="M 0.0703125 0 L 2.582031 0 L 3.988281 -2.6875 L 11.6875 -2.6875 L 13.089844 0 L 15.625 0 L 9.277344 -12.292969 L 6.46875 -12.292969 Z M 4.699219 -4.371094 L 7.835938 -10.542969 L 7.871094 -10.542969 L 10.992188 -4.371094 Z M 4.699219 -4.371094 "/></g></g></g><g fill="#915eff" fill-opacity="1"><g transform="translate(40.956412, 287.558624)"><g><path d="M 0.867188 0 L 11.148438 0 L 11.148438 -1.90625 L 3.277344 -1.90625 L 3.277344 -12.292969 L 0.867188 -12.292969 Z M 0.867188 0 "/></g></g></g><g fill="#915eff" fill-opacity="1"><g transform="translate(66.116698, 287.558624)"><g><path d="M 0.867188 0 L 13.265625 0 L 13.265625 -1.75 L 3.207031 -1.75 L 3.207031 -5.515625 L 12.398438 -5.515625 L 12.398438 -7.125 L 3.207031 -7.125 L 3.207031 -10.523438 L 13.089844 -10.523438 L 13.089844 -12.292969 L 0.867188 -12.292969 Z M 0.867188 0 "/></g></g></g><g fill="#915eff" fill-opacity="1"><g transform="translate(93.599483, 287.558624)"><g><path d="M 0.0703125 0 L 2.84375 0 L 7.59375 -5.132812 L 12.414062 0 L 15.222656 0 L 9.101562 -6.398438 L 15.085938 -12.292969 L 12.292969 -12.292969 L 7.578125 -7.613281 L 2.984375 -12.292969 L 0.207031 -12.292969 L 6.070312 -6.382812 Z M 0.0703125 0 "/></g></g></g><g fill="#915eff" fill-opacity="1"><g transform="translate(122.763473, 287.558624)"><g/></g></g><g fill="#915eff" fill-opacity="1"><g transform="translate(141.649553, 287.558624)"><g><path d="M 0.867188 0 L 3.191406 0 L 3.191406 -9.78125 L 3.226562 -9.78125 L 8.566406 0 L 10.976562 0 L 16.28125 -9.78125 L 16.316406 -9.78125 L 16.316406 0 L 18.640625 0 L 18.640625 -12.292969 L 15.257812 -12.292969 L 9.761719 -2.167969 L 9.746094 -2.167969 L 4.214844 -12.292969 L 0.867188 -12.292969 Z M 0.867188 0 "/></g></g></g><g fill="#915eff" fill-opacity="1"><g transform="translate(175.025238, 287.558624)"><g><path d="M 9.136719 0.398438 C 13.125 0.398438 16.195312 -1.4375 17.027344 -4.335938 L 14.792969 -4.855469 C 14.167969 -2.792969 12 -1.472656 9.171875 -1.472656 C 5.445312 -1.472656 3.070312 -3.292969 3.070312 -6.136719 C 3.070312 -8.980469 5.238281 -10.804688 8.636719 -10.804688 C 11.097656 -10.804688 13.023438 -9.640625 13.613281 -7.804688 L 15.796875 -8.445312 C 14.894531 -11.027344 12.085938 -12.675781 8.582031 -12.675781 C 3.726562 -12.675781 0.660156 -10.125 0.660156 -6.136719 C 0.660156 -2.117188 3.953125 0.398438 9.136719 0.398438 Z M 9.136719 0.398438 "/></g></g></g><g fill="#915eff" fill-opacity="1"><g transform="translate(206.390402, 287.558624)"><g><path d="M 0.867188 0 L 3.277344 0 L 3.277344 -4.160156 L 5.394531 -5.757812 L 11.011719 0 L 14.097656 0 L 7.109375 -7.109375 L 13.957031 -12.292969 L 10.679688 -12.292969 L 3.292969 -6.691406 L 3.277344 -6.691406 L 3.277344 -12.292969 L 0.867188 -12.292969 Z M 0.867188 0 "/></g></g></g><g fill="#915eff" fill-opacity="1"><g transform="translate(234.358478, 287.558624)"><g><path d="M 0.867188 0 L 13.265625 0 L 13.265625 -1.75 L 3.207031 -1.75 L 3.207031 -5.515625 L 12.398438 -5.515625 L 12.398438 -7.125 L 3.207031 -7.125 L 3.207031 -10.523438 L 13.089844 -10.523438 L 13.089844 -12.292969 L 0.867188 -12.292969 Z M 0.867188 0 "/></g></g></g><g fill="#915eff" fill-opacity="1"><g transform="translate(261.841256, 287.558624)"><g><path d="M 0.867188 0 L 3.191406 0 L 3.191406 -9.953125 L 3.207031 -9.953125 L 12.015625 0 L 15.035156 0 L 15.035156 -12.292969 L 12.691406 -12.292969 L 12.691406 -2.359375 L 12.675781 -2.359375 L 3.882812 -12.292969 L 0.867188 -12.292969 Z M 0.867188 0 "/></g></g></g><g fill="#915eff" fill-opacity="1"><g transform="translate(291.611869, 287.558624)"><g><path d="M 0.363281 0 L 13.679688 0 L 13.679688 -1.785156 L 3.105469 -1.785156 L 13.507812 -10.039062 L 13.523438 -12.292969 L 0.554688 -12.292969 L 0.539062 -10.492188 L 10.769531 -10.492188 L 0.363281 -2.21875 Z M 0.363281 0 "/></g></g></g><g fill="#915eff" fill-opacity="1"><g transform="translate(319.527944, 287.558624)"><g><path d="M 0.867188 0 L 3.261719 0 L 3.261719 -12.292969 L 0.867188 -12.292969 Z M 0.867188 0 "/></g></g></g><g fill="#915eff" fill-opacity="1"><g transform="translate(337.530072, 287.558624)"><g><path d="M 0.867188 0 L 13.265625 0 L 13.265625 -1.75 L 3.207031 -1.75 L 3.207031 -5.515625 L 12.398438 -5.515625 L 12.398438 -7.125 L 3.207031 -7.125 L 3.207031 -10.523438 L 13.089844 -10.523438 L 13.089844 -12.292969 L 0.867188 -12.292969 Z M 0.867188 0 "/></g></g></g></svg>