<svg xmlns="http://www.w3.org/2000/svg" version="1.1" xmlns:xlink="http://www.w3.org/1999/xlink" xmlns:svgjs="http://svgjs.dev/svgjs" width="1000" height="1000" viewBox="0 0 1000 1000"><rect width="1000" height="1000" fill="#614a9f"></rect><g transform="matrix(0.7,0,0,0.7,149.57575757575756,282.1265587044535)"><svg viewBox="0 0 396 247" data-background-color="#614a9f" preserveAspectRatio="xMidYMid meet" height="623" width="1000" xmlns="http://www.w3.org/2000/svg" xmlns:xlink="http://www.w3.org/1999/xlink"><g id="tight-bounds" transform="matrix(1,0,0,1,0.2400000000000091,-0.09999999999999432)"><svg viewBox="0 0 395.52 247.2" height="247.2" width="395.52"><g><svg></svg></g><g><svg viewBox="0 0 395.52 247.2" height="247.2" width="395.52"><g mask="url(&quot;#886ce68a-22cf-45bd-8b58-b43d386f011f&quot;)"><g><path d="M160.868 209.683h-49.19v-122.975h24.595v-24.595h24.595v-24.595h73.785v24.595h24.595v24.595h24.595v122.975h-49.19v-49.19h-73.785zM160.868 86.707v49.191h73.785v-49.191h-24.595v-24.594h-24.595v24.595z" fill="#ffffff" fill-rule="nonzero" stroke="none" stroke-width="1" stroke-linecap="butt" stroke-linejoin="miter" stroke-miterlimit="10" stroke-dasharray="" stroke-dashoffset="0" font-family="none" font-weight="none" font-size="none" text-anchor="none" style="mix-blend-mode: normal" data-fill-palette-color="tertiary"></path></g></g><g transform="matrix(1,0,0,1,111.24,37.08)"><svg viewBox="0 0 173.04 173.04" height="173.04" width="173.04"><g><svg viewBox="0 0 173.04 173.04" height="173.04" width="173.04"><g><svg viewBox="0 0 173.04 173.04" height="173.04" width="173.04"><g><svg viewBox="0 0 173.04 173.04" height="173.04" width="173.04"><g id="textblocktransform"><svg viewBox="0 0 173.04 173.04" height="173.04" width="173.04" id="textblock"><g><svg viewBox="0 0 173.04 173.04" height="173.04" width="173.04"><g transform="matrix(1,0,0,1,0,0)"><svg width="173.04" viewBox="-3 -53 49.75 49.75" height="173.04" data-palette-color="#ffffff"><path d="M12.5-6.25L0-6.25 0-37.5 6.25-37.5 6.25-43.75 12.5-43.75 12.5-50 31.25-50 31.25-43.75 37.5-43.75 37.5-37.5 43.75-37.5 43.75-6.25 31.25-6.25 31.25-18.75 12.5-18.75 12.5-6.25ZM12.5-37.5L12.5-25 31.25-25 31.25-37.5 25-37.5 25-43.75 18.75-43.75 18.75-37.5 12.5-37.5Z" opacity="1" transform="matrix(1,0,0,1,0,0)" fill="#ffffff" class="undefined-text-0" data-fill-palette-color="primary" id="text-0"></path></svg></g></svg></g></svg></g></svg></g></svg></g></svg></g></svg></g></svg></g><defs><mask id="886ce68a-22cf-45bd-8b58-b43d386f011f"><rect width="395.52" height="247.2" fill="white"></rect><g transform="matrix(1,0,0,1,111.24,37.08)" id="clone"><svg viewBox="0 0 173.04 173.04" height="173.04" width="173.04"><g><svg viewBox="0 0 173.04 173.04" height="173.04" width="173.04"><g><svg viewBox="0 0 173.04 173.04" height="173.04" width="173.04"><g><svg viewBox="0 0 173.04 173.04" height="173.04" width="173.04"><g id="SvgjsG1026"><svg viewBox="0 0 173.04 173.04" height="173.04" width="173.04" id="SvgjsSvg1025"><g><svg viewBox="0 0 173.04 173.04" height="173.04" width="173.04"><g transform="matrix(1,0,0,1,0,0)"><svg width="173.04" viewBox="-3 -53 49.75 49.75" height="173.04" data-palette-color="#ffffff"><path d="M12.5-6.25L0-6.25 0-37.5 6.25-37.5 6.25-43.75 12.5-43.75 12.5-50 31.25-50 31.25-43.75 37.5-43.75 37.5-37.5 43.75-37.5 43.75-6.25 31.25-6.25 31.25-18.75 12.5-18.75 12.5-6.25ZM12.5-37.5L12.5-25 31.25-25 31.25-37.5 25-37.5 25-43.75 18.75-43.75 18.75-37.5 12.5-37.5Z" opacity="1" transform="matrix(1,0,0,1,0,0)" fill="#ffffff" class="undefined-text-0" data-fill-palette-color="primary" id="SvgjsPath1024" stroke-width="5" stroke="black" stroke-linejoin="round"></path></svg></g></svg></g></svg></g></svg></g></svg></g></svg></g></svg></g></mask></defs></svg><rect width="395.52" height="247.2" fill="none" stroke="none" visibility="hidden"></rect></g></svg></g></svg>