<svg xmlns="http://www.w3.org/2000/svg" xmlns:xlink="http://www.w3.org/1999/xlink" width="500" zoomAndPan="magnify" viewBox="0 0 375 374.999991" height="500" preserveAspectRatio="xMidYMid meet" version="1.0"><defs><g/></defs><g fill="#915eff" fill-opacity="1"><g transform="translate(11.345151, 264.493854)"><g><path d="M 51.648438 -173.453125 L 51.648438 -171.910156 L 62.699219 -140.816406 L 1.796875 -1.542969 L 1.796875 0 L 67.582031 0 L 67.582031 -1.542969 C 56.019531 -14.648438 49.59375 -35.71875 49.082031 -60.128906 L 91.222656 -60.128906 L 106.640625 -14.902344 L 93.535156 -1.542969 L 93.535156 0 L 163.171875 0 L 163.171875 -1.542969 L 104.585938 -173.453125 Z M 49.082031 -64.753906 C 49.59375 -81.199219 52.679688 -99.1875 58.84375 -116.917969 L 64.753906 -133.621094 L 66.296875 -133.621094 L 89.679688 -64.753906 Z M 49.082031 -64.753906 "/></g></g></g><g fill="#915eff" fill-opacity="1"><g transform="translate(169.119925, 264.493854)"><g><path d="M 185.273438 -173.453125 L 131.566406 -173.453125 L 100.214844 -95.335938 L 98.929688 -95.335938 L 61.671875 -173.964844 L 6.167969 -173.453125 L 6.167969 -171.910156 L 20.558594 -146.214844 L 20.558594 0 L 74.777344 0 L 74.777344 -1.285156 C 42.914062 -27.238281 26.210938 -61.414062 26.210938 -116.664062 L 26.210938 -133.878906 L 27.496094 -133.878906 L 78.117188 -30.578125 L 80.945312 -30.578125 L 123.855469 -136.191406 L 125.398438 -136.191406 L 125.65625 -14.902344 L 111.78125 -1.542969 L 111.78125 0 L 175.765625 0 L 175.507812 -158.546875 L 185.273438 -171.910156 Z M 185.273438 -173.453125 "/></g></g></g></svg>